# xmcd CD database file
#
# Track frame offsets:
#	150
#	14345
#	29736
#	40000
#	54929
#	71043
#	84622
#	95951
#	108370
#	120197
#	159616
#	174332
#	187082
#	209685
#	223051
#	238051
#	253217
#	267555
#	280374
#
# Disc length: 3920 seconds
#
# Revision: 1
# Processed by: cddbd v1.5.1PL0 Copyright (c) Steve Scherf et al.
# Submitted via: CDex 1.51
#
DISCID=240f4e13
DTITLE=Benny Goodman - Get Happy CD 2 - 4
DYEAR=2005
DGENRE=Jazz
TTITLE0=King Porter Stomp
TTITLE1=Goodbye
TTITLE2=If I Could Be With You
TTITLE3=Down South Camp Meeting
TTITLE4=Christopher Columbus
TTITLE5=Bugle Call Rag
TTITLE6=Goody Goody
TTITLE7=He Ain't Got Rhythm
TTITLE8=I Want To Be Happy
TTITLE9=Sing, Sing, Sing
TTITLE10=Stompin' At The Savoy
TTITLE11=Sugar Foot Stomp
TTITLE12=St. Louis Blues
TTITLE13=Topsy
TTITLE14=Don't Be That Way
TTITLE15=Blue Lou
TTITLE16=And The Angel Sing
TTITLE17=The Kingdom Of Swing
TTITLE18=Pick - A - Rib
EXTD=YEAR: 2005
EXTT0=
EXTT1=
EXTT2=
EXTT3=
EXTT4=
EXTT5=
EXTT6=
EXTT7=
EXTT8=
EXTT9=
EXTT10=
EXTT11=
EXTT12=
EXTT13=
EXTT14=
EXTT15=
EXTT16=
EXTT17=
EXTT18=
PLAYORDER=
